<svg version="1.1" id="Layer_1" xmlns="http://www.w3.org/2000/svg" xmlns:xlink="http://www.w3.org/1999/xlink" x="0px" y="0px" width="100%" viewBox="0 0 400 400" enable-background="new 0 0 400 400" xml:space="preserve">
<path fill="#101314" opacity="1.000000" stroke="none" d="
M1.000000,222.000000 
	C1.000000,179.979111 1.000000,137.958206 1.468657,95.469147 
	C9.920595,94.991226 17.904541,94.916573 25.886881,94.998466 
	C30.025755,95.040932 32.082737,93.298790 31.987165,89.051308 
	C31.912386,85.727898 32.020386,82.399719 32.078293,79.074196 
	C32.128643,76.182350 33.385086,74.093674 36.475399,74.145256 
	C41.919350,74.236122 43.093601,71.230797 43.046425,66.491325 
	C42.902065,51.989437 42.038986,53.038830 56.536728,52.975807 
	C63.153625,52.947041 63.955330,52.129810 63.977634,45.407429 
	C64.026749,30.605093 63.997353,15.802493 64.000000,1.000000 
	C74.354225,1.000000 84.708458,1.000000 95.531342,1.468657 
	C96.002380,16.428770 95.972061,30.920340 96.021667,45.411633 
	C96.044685,52.134651 96.846260,52.959202 103.486542,52.975075 
	C122.475235,53.020462 141.464172,53.019707 160.452881,52.976322 
	C167.142746,52.961037 167.957596,52.143459 167.980331,45.473732 
	C168.030884,30.649305 167.998550,15.824595 168.000000,1.000000 
	C178.687561,1.000000 189.375122,1.000000 200.531342,1.468657 
	C201.002426,16.432230 200.971924,30.927258 201.021912,45.422009 
	C201.045074,52.137440 201.847778,52.950577 208.499908,52.976051 
	C223.035446,53.031719 221.956406,52.043053 222.024017,66.571457 
	C222.054703,73.165245 222.874954,73.951454 229.649384,73.979202 
	C242.144714,74.030373 254.640472,73.970863 267.135864,74.016319 
	C274.202972,74.042023 274.951263,74.770721 274.979523,81.714684 
	C275.031708,94.543228 274.955231,107.372414 275.037231,120.200661 
	C275.074158,125.976250 276.017944,126.906883 281.777740,126.963608 
	C291.106873,127.055473 300.437836,126.956032 309.767303,127.028961 
	C316.103210,127.078484 316.942169,127.922104 316.973846,134.347214 
	C317.034668,146.675858 316.980347,159.005035 317.008606,171.333893 
	C317.027374,179.518539 317.544769,180.119064 325.909180,179.964920 
	C337.389343,179.753403 348.864746,179.294113 360.343811,179.006058 
	C367.232544,178.833191 367.982544,178.188736 367.986420,171.080795 
	C368.010040,127.762947 368.009308,84.445076 367.988739,41.127235 
	C367.985229,33.734970 367.293091,33.036140 360.051636,33.016376 
	C343.890869,32.972271 327.729462,32.917049 311.569397,33.025436 
	C306.918732,33.056625 304.894135,31.192150 304.976776,26.489996 
	C305.126038,17.995817 305.006989,9.496924 305.000000,1.000000 
	C336.973511,1.000000 368.947052,1.000000 400.955383,1.000000 
	C400.955383,134.333328 400.955383,267.666656 400.955383,401.000000 
	C390.252960,401.000000 379.595154,401.000000 368.469391,400.531342 
	C367.999756,371.574310 368.018036,343.085938 367.981628,314.597626 
	C367.973053,307.868683 367.156372,307.047852 360.521881,307.024902 
	C345.528198,306.973083 330.534180,306.986542 315.540344,307.011322 
	C307.580933,307.024475 307.013947,307.582886 307.008301,315.534912 
	C306.988068,344.023285 307.000153,372.511627 307.000000,401.000000 
	C295.979095,401.000000 284.958221,401.000000 273.468262,400.531342 
	C272.996490,371.574707 273.013550,343.086670 272.976501,314.598755 
	C272.967773,307.865875 272.155334,307.047882 265.520752,307.024933 
	C250.527267,306.973114 235.533432,306.986511 220.539810,307.011322 
	C212.581329,307.024506 212.015594,307.582245 212.009827,315.536041 
	C211.989212,344.024017 212.000671,372.512024 212.000000,401.000000 
	C201.645767,401.000000 191.291550,401.000000 180.468658,400.531342 
	C179.662750,371.419861 179.338074,342.776855 178.978394,314.134308 
	C178.899887,307.881439 178.054047,307.056305 171.554382,307.024902 
	C159.890366,306.968506 148.225861,306.984619 136.561646,307.010773 
	C128.581787,307.028656 128.015762,307.578278 128.009933,315.517456 
	C127.989006,344.011627 128.000671,372.505829 128.000000,401.000000 
	C117.312439,401.000000 106.624878,401.000000 95.468491,400.531342 
	C94.997231,371.582245 95.014343,343.101807 94.978050,314.621429 
	C94.969444,307.871399 94.159714,307.056885 87.547371,307.024872 
	C75.555885,306.966797 63.563889,307.021332 51.572197,306.991608 
	C43.582497,306.971802 43.019135,306.425476 43.009827,298.502533 
	C42.982632,275.351807 43.021778,252.200958 42.966030,229.050323 
	C42.951431,222.987747 42.017860,222.071304 35.975800,222.033203 
	C24.317593,221.959686 12.658642,222.004349 1.000000,222.000000 
M81.483002,180.000000 
	C83.313370,179.998383 85.143898,180.011368 86.974091,179.992569 
	C94.275352,179.917572 94.963127,179.274887 94.983406,171.965973 
	C95.018028,159.486313 94.896339,147.005569 95.023727,134.527161 
	C95.071449,129.852509 93.125862,127.928200 88.460968,127.976418 
	C75.816193,128.107132 63.168285,128.107391 50.523506,127.976768 
	C45.849483,127.928474 43.924427,129.876038 43.970406,134.539673 
	C44.098335,147.517334 44.098854,160.497894 43.970634,173.475555 
	C43.924442,178.151199 45.876076,180.088531 50.538559,180.024017 
	C60.520367,179.885910 70.505562,179.993195 81.483002,180.000000 
M179.000000,142.509903 
	C178.997375,140.180435 179.021454,137.850571 178.987061,135.521576 
	C178.888626,128.855881 178.141556,128.050034 171.460358,128.023636 
	C159.147659,127.974991 146.833649,128.105515 134.522141,127.976509 
	C129.844543,127.927490 127.928619,129.881836 127.974854,134.542938 
	C128.103561,147.520111 128.104294,160.500229 127.975159,173.477402 
	C127.928612,178.154739 129.881088,180.072342 134.542145,180.024292 
	C147.186462,179.893967 159.833908,179.893143 172.478226,180.024063 
	C177.156464,180.072495 179.088776,178.117783 179.024155,173.456512 
	C178.885773,163.475067 178.993225,153.490234 179.000000,142.509903 
z" data-index="0" style="opacity: 1; visibility: visible; fill: rgb(255, 255, 255);"></path>
<path fill="#000000" opacity="1.000000" stroke="none" d="
M304.531342,1.000000 
	C305.006989,9.496924 305.126038,17.995817 304.976776,26.489996 
	C304.894135,31.192150 306.918732,33.056625 311.569397,33.025436 
	C327.729462,32.917049 343.890869,32.972271 360.051636,33.016376 
	C367.293091,33.036140 367.985229,33.734970 367.988739,41.127235 
	C368.009308,84.445076 368.010040,127.762947 367.986420,171.080795 
	C367.982544,178.188736 367.232544,178.833191 360.343811,179.006058 
	C348.864746,179.294113 337.389343,179.753403 325.909180,179.964920 
	C317.544769,180.119064 317.027374,179.518539 317.008606,171.333893 
	C316.980347,159.005035 317.034668,146.675858 316.973846,134.347214 
	C316.942169,127.922104 316.103210,127.078484 309.767303,127.028961 
	C300.437836,126.956032 291.106873,127.055473 281.777740,126.963608 
	C276.017944,126.906883 275.074158,125.976250 275.037231,120.200661 
	C274.955231,107.372414 275.031708,94.543228 274.979523,81.714684 
	C274.951263,74.770721 274.202972,74.042023 267.135864,74.016319 
	C254.640472,73.970863 242.144714,74.030373 229.649384,73.979202 
	C222.874954,73.951454 222.054703,73.165245 222.024017,66.571457 
	C221.956406,52.043053 223.035446,53.031719 208.499908,52.976051 
	C201.847778,52.950577 201.045074,52.137440 201.021912,45.422009 
	C200.971924,30.927258 201.002426,16.432230 201.000000,1.468657 
	C235.354233,1.000000 269.708466,1.000000 304.531342,1.000000 
z" data-index="1" style="opacity: 1; visibility: visible; fill: rgb(0, 0, 0);"></path>
<path fill="#000000" opacity="1.000000" stroke="none" d="
M1.000000,222.468658 
	C12.658642,222.004349 24.317593,221.959686 35.975800,222.033203 
	C42.017860,222.071304 42.951431,222.987747 42.966030,229.050323 
	C43.021778,252.200958 42.982632,275.351807 43.009827,298.502533 
	C43.019135,306.425476 43.582497,306.971802 51.572197,306.991608 
	C63.563889,307.021332 75.555885,306.966797 87.547371,307.024872 
	C94.159714,307.056885 94.969444,307.871399 94.978050,314.621429 
	C95.014343,343.101807 94.997231,371.582245 94.999832,400.531342 
	C63.716946,401.000000 32.433887,401.000000 1.000000,401.000000 
	C1.000000,341.645844 1.000000,282.291595 1.000000,222.468658 
z" data-index="2" style="opacity: 1; visibility: visible; fill: rgb(0, 0, 0);"></path>
<path fill="#000000" opacity="1.000000" stroke="none" d="
M212.468658,401.000000 
	C212.000671,372.512024 211.989212,344.024017 212.009827,315.536041 
	C212.015594,307.582245 212.581329,307.024506 220.539810,307.011322 
	C235.533432,306.986511 250.527267,306.973114 265.520752,307.024933 
	C272.155334,307.047882 272.967773,307.865875 272.976501,314.598755 
	C273.013550,343.086670 272.996490,371.574707 272.999603,400.531342 
	C252.979111,401.000000 232.958206,401.000000 212.468658,401.000000 
z" data-index="3" style="opacity: 1; visibility: visible; fill: rgb(0, 0, 0);"></path>
<path fill="#000000" opacity="1.000000" stroke="none" d="
M307.468658,401.000000 
	C307.000153,372.511627 306.988068,344.023285 307.008301,315.534912 
	C307.013947,307.582886 307.580933,307.024475 315.540344,307.011322 
	C330.534180,306.986542 345.528198,306.973083 360.521881,307.024902 
	C367.156372,307.047852 367.973053,307.868683 367.981628,314.597626 
	C368.018036,343.085938 367.999756,371.574310 368.000732,400.531342 
	C347.979095,401.000000 327.958221,401.000000 307.468658,401.000000 
z" data-index="4" style="opacity: 1; visibility: visible; fill: rgb(0, 0, 0);"></path>
<path fill="#000000" opacity="1.000000" stroke="none" d="
M128.468658,401.000000 
	C128.000671,372.505829 127.989006,344.011627 128.009933,315.517456 
	C128.015762,307.578278 128.581787,307.028656 136.561646,307.010773 
	C148.225861,306.984619 159.890366,306.968506 171.554382,307.024902 
	C178.054047,307.056305 178.899887,307.881439 178.978394,314.134308 
	C179.338074,342.776855 179.662750,371.419861 180.000000,400.531342 
	C162.979111,401.000000 145.958206,401.000000 128.468658,401.000000 
z" data-index="5" style="opacity: 1; visibility: visible; fill: rgb(0, 0, 0);"></path>
<path fill="#000000" opacity="1.000000" stroke="none" d="
M63.531342,1.000000 
	C63.997353,15.802493 64.026749,30.605093 63.977634,45.407429 
	C63.955330,52.129810 63.153625,52.947041 56.536728,52.975807 
	C42.038986,53.038830 42.902065,51.989437 43.046425,66.491325 
	C43.093601,71.230797 41.919350,74.236122 36.475399,74.145256 
	C33.385086,74.093674 32.128643,76.182350 32.078293,79.074196 
	C32.020386,82.399719 31.912386,85.727898 31.987165,89.051308 
	C32.082737,93.298790 30.025755,95.040932 25.886881,94.998466 
	C17.904541,94.916573 9.920595,94.991226 1.468657,95.000488 
	C1.000000,63.754211 1.000000,32.508423 1.000000,1.000000 
	C21.686821,1.000000 42.374752,1.000000 63.531342,1.000000 
z" data-index="6" style="opacity: 1; visibility: visible; fill: rgb(0, 0, 0);"></path>
<path fill="#000000" opacity="1.000000" stroke="none" d="
M167.531342,1.000000 
	C167.998550,15.824595 168.030884,30.649305 167.980331,45.473732 
	C167.957596,52.143459 167.142746,52.961037 160.452881,52.976322 
	C141.464172,53.019707 122.475235,53.020462 103.486542,52.975075 
	C96.846260,52.959202 96.044685,52.134651 96.021667,45.411633 
	C95.972061,30.920340 96.002380,16.428770 96.000000,1.468657 
	C119.687561,1.000000 143.375122,1.000000 167.531342,1.000000 
z" data-index="7" style="opacity: 1; visibility: visible; fill: rgb(0, 0, 0);"></path>
<path fill="#000000" opacity="1.000000" stroke="none" d="
M80.986191,180.000000 
	C70.505562,179.993195 60.520367,179.885910 50.538559,180.024017 
	C45.876076,180.088531 43.924442,178.151199 43.970634,173.475555 
	C44.098854,160.497894 44.098335,147.517334 43.970406,134.539673 
	C43.924427,129.876038 45.849483,127.928474 50.523506,127.976768 
	C63.168285,128.107391 75.816193,128.107132 88.460968,127.976418 
	C93.125862,127.928200 95.071449,129.852509 95.023727,134.527161 
	C94.896339,147.005569 95.018028,159.486313 94.983406,171.965973 
	C94.963127,179.274887 94.275352,179.917572 86.974091,179.992569 
	C85.143898,180.011368 83.313370,179.998383 80.986191,180.000000 
z" data-index="8" style="opacity: 1; visibility: visible; fill: rgb(0, 0, 0);"></path>
<path fill="#000000" opacity="1.000000" stroke="none" d="
M179.000000,143.008347 
	C178.993225,153.490234 178.885773,163.475067 179.024155,173.456512 
	C179.088776,178.117783 177.156464,180.072495 172.478226,180.024063 
	C159.833908,179.893143 147.186462,179.893967 134.542145,180.024292 
	C129.881088,180.072342 127.928612,178.154739 127.975159,173.477402 
	C128.104294,160.500229 128.103561,147.520111 127.974854,134.542938 
	C127.928619,129.881836 129.844543,127.927490 134.522141,127.976509 
	C146.833649,128.105515 159.147659,127.974991 171.460358,128.023636 
	C178.141556,128.050034 178.888626,128.855881 178.987061,135.521576 
	C179.021454,137.850571 178.997375,140.180435 179.000000,143.008347 
z" data-index="9" style="opacity: 1; visibility: visible; fill: rgb(0, 0, 0);"></path>
</svg>